<?xml version="1.0" encoding="UTF-8" standalone="no"?>
<svg
   xmlns:dc="http://purl.org/dc/elements/1.1/"
   xmlns:cc="http://creativecommons.org/ns#"
   xmlns:rdf="http://www.w3.org/1999/02/22-rdf-syntax-ns#"
   xmlns:svg="http://www.w3.org/2000/svg"
   xmlns="http://www.w3.org/2000/svg"
   viewBox="0 0 960 960"
   height="960"
   width="960"
   xml:space="preserve"
   id="svg2"
   version="1.1"><metadata
     id="metadata8"><rdf:RDF><cc:Work
         rdf:about=""><dc:format>image/svg+xml</dc:format><dc:type
           rdf:resource="http://purl.org/dc/dcmitype/StillImage" /></cc:Work></rdf:RDF></metadata><defs
     id="defs6" /><g
     transform="matrix(1.3333333,0,0,-1.3333333,0,960)"
     id="g10"><g
       transform="scale(0.1)"
       id="g12"><path
         id="path14"
         style="fill:#476ebb;fill-opacity:1;fill-rule:nonzero;stroke:none"
         d="M 0,0 H 7200 V 7200 H 0 Z" /><path
         id="path16"
         style="fill:#ffffff;fill-opacity:1;fill-rule:nonzero;stroke:none"
         d="m 5122.98,3314.25 c 110.27,76.49 142.28,176.74 142.28,272.89 0,96.2 0,-91.93 0,42.47 0,100.07 -55.24,178.07 -142.46,240.68 -73.7,52.93 -2746.16,1910.88 -2746.16,1910.88 0,0 0,-241.37 0,-395.26 0,-137.27 74.39,-183.08 167.77,-249.03 134.54,-94.97 2221.39,-1543.94 2221.39,-1543.94 0,0 -2114.46,-1461.14 -2240.91,-1545.21 -131.37,-87.05 -148.25,-146.69 -148.25,-262.22 0,-115.55 0,-369.86 0,-369.86 0,0 2626.92,1815.76 2746.34,1898.6" /><path
         id="path18"
         style="fill:#ffffff;fill-opacity:1;fill-rule:nonzero;stroke:none"
         d="m 2376.64,4471.14 c 0,-107.02 0,-271.81 0,-271.81 0,0 824.99,-576.4 984.85,-682.15 136.29,-90.39 251.3,-83.35 390.43,19.3 86.35,63.68 167.61,119.77 167.61,119.77 0,0 -1202.23,833.98 -1329.04,917.86 -101.47,67.26 -213.85,19.52 -213.85,-102.97" /></g></g></svg>