<?xml version="1.0" encoding="utf-8"?>
<!-- Generator: Adobe Illustrator 16.0.0, SVG Export Plug-In . SVG Version: 6.00 Build 0)  -->
<!DOCTYPE svg PUBLIC "-//W3C//DTD SVG 1.0//EN" "http://www.w3.org/TR/2001/REC-SVG-20010904/DTD/svg10.dtd">
<svg version="1.0" id="Layer_1" xmlns="http://www.w3.org/2000/svg" xmlns:xlink="http://www.w3.org/1999/xlink" x="0px" y="0px"
	 width="315px" height="315px" viewBox="0 0 315 315" enable-background="new 0 0 315 315" xml:space="preserve">
<g>
	<path fill="#333333" d="M205.6,178.561C180.162,170.975,73.209,74.553,105.553,29.443c20.641-28.781,112.648-18.18,119.109,24.711
		C231.146,97.045,180.654,128.951,205.6,178.561z"/>
	<path fill="#333333" d="M200.076,192.412c-12.656,13.727-106.555,51.523-125.047,17.18c-11.797-21.914,23.281-76.758,52.359-67.602
		C156.475,151.139,161.053,192.873,200.076,192.412z"/>
	<path fill="#333333" d="M208.045,207.725c7.648,11.617,18.016,86.328-10.164,93.508c-17.961,4.578-51.273-30.688-39.414-50.047
		C170.334,231.787,201.326,236.029,208.045,207.725z"/>
</g>
<rect id="_x3C_Slice_x3E_" fill="none" width="315" height="315"/>
</svg>
