<?xml version="1.0" encoding="UTF-8" standalone="no"?>
<svg
   xmlns:dc="http://purl.org/dc/elements/1.1/"
   xmlns:cc="http://creativecommons.org/ns#"
   xmlns:rdf="http://www.w3.org/1999/02/22-rdf-syntax-ns#"
   xmlns:svg="http://www.w3.org/2000/svg"
   xmlns="http://www.w3.org/2000/svg"
   viewBox="0 0 1066.6667 1066.6667"
   height="1066.6667"
   width="1066.6667"
   xml:space="preserve"
   id="svg2"
   version="1.1"><metadata
     id="metadata8"><rdf:RDF><cc:Work
         rdf:about=""><dc:format>image/svg+xml</dc:format><dc:type
           rdf:resource="http://purl.org/dc/dcmitype/StillImage" /></cc:Work></rdf:RDF></metadata><defs
     id="defs6"><clipPath
       id="clipPath20"
       clipPathUnits="userSpaceOnUse"><path
         id="path18"
         d="m 4002.99,690.41 c 1531.54,0 2561.76,557.17 2561.76,2116.62 0,581.52 -252.6,1329.74 -802.93,2097.96 -579.57,808.29 -949.38,939.13 -1758.83,2404.6 C 3193.54,5844.12 2823.74,5713.28 2244.19,4904.99 1693.52,4136.77 1440.92,3388.55 1440.92,2807.03 1440.92,1247.58 2471.47,690.41 4002.99,690.41 Z" /></clipPath><linearGradient
       id="linearGradient26"
       spreadMethod="pad"
       gradientTransform="matrix(-2.893e-4,6619.17,6619.17,2.893e-4,4002.84,690.41)"
       gradientUnits="userSpaceOnUse"
       y2="0"
       x2="1"
       y1="0"
       x1="0"><stop
         id="stop22"
         offset="0"
         style="stop-opacity:1;stop-color:#4759b1" /><stop
         id="stop24"
         offset="1"
         style="stop-opacity:1;stop-color:#78b1e4" /></linearGradient></defs><g
     transform="matrix(1.3333333,0,0,-1.3333333,0,1066.6667)"
     id="g10"><g
       transform="scale(0.1)"
       id="g12"><g
         id="g14"><g
           clip-path="url(#clipPath20)"
           id="g16"><path
             id="path28"
             style="fill:url(#linearGradient26);fill-opacity:1;fill-rule:nonzero;stroke:none"
             d="m 4002.99,690.41 c 1531.54,0 2561.76,557.17 2561.76,2116.62 0,581.52 -252.6,1329.74 -802.93,2097.96 -579.57,808.29 -949.38,939.13 -1758.83,2404.6 C 3193.54,5844.12 2823.74,5713.28 2244.19,4904.99 1693.52,4136.77 1440.92,3388.55 1440.92,2807.03 1440.92,1247.58 2471.47,690.41 4002.99,690.41" /></g></g></g></g></svg>