<?xml version="1.0" standalone="no"?>
<!DOCTYPE svg PUBLIC "-//W3C//DTD SVG 1.1//EN" "http://www.w3.org/Graphics/SVG/1.1/DTD/svg11.dtd">
<svg width="100%" height="100%" viewBox="0 20 581 640" version="1.1" xmlns="http://www.w3.org/2000/svg" xmlns:xlink="http://www.w3.org/1999/xlink" xml:space="preserve" style="fill-rule:evenodd;clip-rule:evenodd;stroke-linejoin:round;stroke-miterlimit:1.41421;">
    <g id="Layer 1" transform="matrix(1,0,0,1,-309.5,-180)">
        <g transform="matrix(3.27114,0,0,3.27114,-738.318,-1054.55)">
            <path d="M377.433,481.219L434.396,514.29C444.433,519.437 453.741,520.595 464.421,516.392C477.161,511.373 485.868,500.993 486.898,487.138C487.756,476.115 483.38,464.791 475.273,457.241C465.622,448.191 452.797,446.132 440.272,449.392C437.999,449.864 434.096,451.494 431.179,452.566C429.935,452.995 428.905,453.381 428.262,453.467C423.286,453.982 420.584,447.333 425.045,444.716C434.61,439.097 447.607,437.339 456.272,438.197C466.738,439.355 476.603,443.901 484.152,451.322C493.117,460.201 497.75,472.126 497.407,484.736C496.935,502.623 486.855,517.936 470.469,525.228C460.432,529.646 449.108,530.461 438.685,527.33C434.953,526.214 432.723,524.885 429.334,522.997L371.9,490.784L369.026,495.717L362.163,478.645L380.393,476.158L377.433,481.219Z" style="fill:rgb( 50,141, 208);"/>
        </g>
        <g transform="matrix(3.27114,0,0,3.27114,-738.318,-1054.55)">
            <path d="M440.702,485.937L383.782,452.909C373.702,447.762 364.394,446.604 353.714,450.807C341.017,455.826 332.31,466.206 331.237,480.061C330.379,491.084 334.755,502.408 342.862,509.957C352.555,519.008 365.338,521.067 377.906,517.807C380.136,517.335 384.082,515.705 386.956,514.633C388.2,514.204 389.23,513.818 389.916,513.732C394.892,513.217 397.594,519.866 393.09,522.482C383.525,528.101 370.528,529.86 361.863,529.002C351.397,527.844 341.532,523.297 334.025,515.877C325.018,506.998 320.428,495.073 320.728,482.463C321.2,464.576 331.28,449.263 347.709,441.971C357.703,437.553 369.027,436.738 379.45,439.869C383.224,440.984 385.455,442.271 388.801,444.159L446.235,476.415L449.152,471.439L456.015,488.554L437.742,491.041L440.702,485.937Z" style="fill:rgb( 50,141, 208);"/>
        </g>
    </g>
</svg>