<?xml version="1.0" standalone="no"?>
<!DOCTYPE svg PUBLIC "-//W3C//DTD SVG 1.1//EN" "http://www.w3.org/Graphics/SVG/1.1/DTD/svg11.dtd">
<svg width="100%" height="100%" viewBox="0 0 80 41" version="1.1" xmlns="http://www.w3.org/2000/svg" xmlns:xlink="http://www.w3.org/1999/xlink" xml:space="preserve" style="fill-rule:evenodd;clip-rule:evenodd;stroke-linejoin:round;stroke-miterlimit:1.41421;">
    <g transform="matrix(1,0,0,1,-0.329843,-1.95628)">
        <g transform="matrix(4.16667,0,0,4.16667,-2043.33,-2060.83)">
            <g transform="matrix(0.0709438,0,0,0.0709438,464.185,464.978)">
                <path d="M528.968,434.372C522.193,438.341 526.304,448.432 533.815,447.695C534.836,447.497 536.423,446.958 538.266,446.278C542.687,444.662 548.64,442.167 552.07,441.487C571.119,436.555 590.537,439.674 605.22,453.364C617.522,464.874 624.183,482.023 622.88,498.803C621.292,519.809 608.054,535.569 588.75,543.194C572.537,549.544 558.42,547.815 543.141,539.963L456.713,489.818L461.191,482.08L433.497,485.878L443.929,511.815L448.294,504.303L535.487,553.229C540.59,556.092 543.991,558.077 549.717,559.777C565.535,564.511 582.684,563.292 597.907,556.546C622.795,545.547 638.102,522.275 638.81,495.09C639.292,475.985 632.319,457.872 618.684,444.407C607.261,433.154 592.294,426.237 576.364,424.48C574.277,424.268 572.023,424.158 569.65,424.158C557.097,424.158 541.198,427.221 528.968,434.372Z" style="fill:url(#_Linear1);fill-rule:nonzero;"/>
            </g>
        </g>
        <g transform="matrix(4.16667,0,0,4.16667,-2043.33,-2060.83)">
            <g transform="matrix(0.0709438,0,0,0.0709438,464.185,464.978)">
                <path d="M411.556,430.233C386.669,441.26 371.362,464.533 370.653,491.689C370.171,510.823 377.144,528.908 390.779,542.372C402.203,553.654 417.17,560.543 433.1,562.3C446.224,563.632 465.953,560.911 480.496,552.407C487.27,548.439 483.16,538.376 475.648,539.113C474.628,539.283 473.04,539.821 471.198,540.501C466.776,542.146 460.823,544.612 457.393,545.32C438.344,550.253 418.927,547.107 404.244,533.415C391.941,521.934 385.28,504.757 386.583,488.004C388.171,466.971 401.409,451.211 420.713,443.614C436.927,437.235 451.043,438.993 466.322,446.817L552.75,496.99L548.272,504.7L575.967,500.901L565.535,474.964L561.17,482.505L473.976,433.55C468.874,430.687 465.472,428.703 459.746,427.002C453.371,425.106 446.783,424.172 440.189,424.172C430.421,424.173 420.644,426.223 411.556,430.233Z" style="fill:url(#_Linear2);fill-rule:nonzero;"/>
            </g>
        </g>
    </g>
    <defs>
        <linearGradient id="_Linear1" x1="0" y1="0" x2="1" y2="0" gradientUnits="userSpaceOnUse" gradientTransform="matrix(205.337,0,0,205.337,433.497,493.393)"><stop offset="0%" style="stop-color:rgb(167,223,249);stop-opacity:1"/><stop offset="100%" style="stop-color:rgb(53,138,202);stop-opacity:1"/></linearGradient>
        <linearGradient id="_Linear2" x1="0" y1="0" x2="1" y2="0" gradientUnits="userSpaceOnUse" gradientTransform="matrix(205.337,0,0,205.337,370.63,493.397)"><stop offset="0%" style="stop-color:rgb(167,223,249);stop-opacity:1"/><stop offset="100%" style="stop-color:rgb(53,138,202);stop-opacity:1"/></linearGradient>
    </defs>
</svg>
