<svg xmlns="http://www.w3.org/2000/svg" viewBox="0 0 300 340" enable-background="new 0 0 300 340"><path fill="#654E44" d="M291.227 241.531c-.021-.529-.066-1.033-.125-1.508-.039-.313-.099-.628-.177-.931-.132-.704-.292-1.402-.528-2.066l-.006-.013c-.485-1.379-1.237-2.703-2.204-3.818-.961-1.115-2.116-1.997-3.269-2.605l-.037-.023c-1.23-.644-2.438-1.003-3.534-1.214-.322-.058-.622-.088-.923-.121 1.401-6.005-.353-10.587-1.486-12.729l.264-.25c1.495-1.444 2.768-2.827 3.838-4.217l.202-.276c.861-1.235 1.427-2.5 1.792-3.661.309-.996.461-1.9.552-2.723l.01.001.009-.051.006-.117.033-.254h-.019l.014-.285h.007l.004-.17.013-.527c.007-.341.006-.692-.013-1.08-.08-1.858-.418-4.275-1.639-6.893-.61-1.305-1.452-2.645-2.574-3.887-1.117-1.241-2.511-2.371-4.112-3.265l.011.004-.316-.189c-3.324-4.895-7.123-8.689-10.489-11.568-1.747-1.493-3.377-2.739-4.767-3.757-1.377-1.01-2.536-1.809-3.184-2.287l.008.004c-1.482-1.087-2.584-1.739-3.11-2.038-1.214-.737-2.116-1.326-2.661-1.736-.425-.322-.632-.529-.71-.613l-.041-.054c-.008-.011-.054-.103-.118-.431-.067-.327-.142-.886-.173-1.694-.056-1.271-.013-3.132.126-5.589.223-3.951.673-9.404 1.136-16.795.154-2.35.175-4.563.09-6.649-.138-3.347-.57-6.377-1.271-9.125l-.002-.015c-.154-.625-.332-1.239-.52-1.843l-.003-.006-.004-.007c-.141-.45-.265-.792-.34-1.008l.004.013c-.142-.402-.287-.8-.448-1.204l-.006-.018-.313-.765-.004-.008-.002-.005c-.254-.596-.541-1.235-.905-1.925l-.097-.185-.185-.325-.13-.219c-.673-1.108-1.386-2.12-2.13-3.062-.376-1.699-1.029-4.213-2.113-7.07-.962-2.515-2.252-5.305-4.086-8.056-.636-.949-1.358-1.888-2.153-2.808l.265-.273c.371-.388 9.181-9.613 16.077-21.584 12.854-22.313 8.575-35.956 2.724-43.47l-.165-.21-.177-.197c-5.64-6.271-13.313-10.048-22.805-11.227-19.655-2.445-41.885 7.2-47.713 9.944l-10.595-11.704-.039-.044c-.938-1.029-1.978-1.95-3.094-2.757-1.121-.809-2.324-1.507-3.586-2.092-2.531-1.174-5.309-1.911-8.265-2.277-5.931-.73-12.587-.021-19.828 1.835-10.851 2.799-23.039 8.219-35.777 15.861-12.732 7.645-26 17.519-38.883 29.268-15.741 14.357-28.745 29.536-38.219 43.944-4.733 7.205-8.589 14.218-11.452 20.87-2.859 6.656-4.738 12.947-5.463 18.769-.526 4.231-.442 8.23.407 11.917.372 1.612.903 3.161 1.587 4.628.876 1.886 2.009 3.635 3.42 5.181l.034.038 11.1 11.625 1.228 1.285-.07.123-.391.706c-.19.35-.381.7-.564 1.055l-.359.727c-.175.362-.346.72-.515 1.087l-.325.739c-.163.37-.319.743-.468 1.121l-.293.746c-.144.381-.28.771-.417 1.157l-.254.755c-.13.396-.248.792-.367 1.193l-.102.33-.118.427c-.114.41-.215.824-.316 1.238l-.182.75-.115.546-.151.771-.136.701c-.092.521-.167 1.051-.24 1.577l-.069.464-.005.045-.012.14-.107 1.041c-.052.544-.095 1.089-.125 1.642l-.039.73-.029.567c-.01.383-.005.771-.008 1.16v1.1969999999999998l.024.749.054.815.029.604.039.43.074.768c.027.293.058.605.103.963l.002.031v-.005l.049.341.129.868c.034.258.081.548.14.91l.073.374.103.519.002.015.005.023.046.221c.044.239.105.539.195.95l.066.275.151.594.063.265.073.291.064.244.056.204.046.184.073.241.067.252.183.584.293.937-.021-.065.024.075.085.243.259.73.007.015v.003c.079.221.193.546.354.966l.002.007.003.01-.003-.01.014.039-.006-.021.071.173.251.616.081.198.012.031.164.392.219.513-.007-.016.087.188.225.487.169.352-.008-.018.011.022.007.016-.007-.016c.102.216.228.493.402.839l.015.031.01.02.074.143.209.401.237.44.011.027.408.753.012.02.012.025.075.125.213.369.307.515.025.041.004.012.411.669.017.027.053.088.267.412.356.536-.017-.026.476.7.018.024.01.019-.02-.031.021.033.018.022-.005-.004.007.013.003.001.3.42.388.53-.007-.011.424.567.037.048.372.477.444.548.046.058.354.426.066.08-.002.001.021.027.039.041c.222.262.422.485.623.708l.212.244v-.001l.002.005.009.01.016.015-.005-.003.374.409.046.054.002.003.007.006.03.031-.007-.007c.242.26.477.5.715.742l.293.302.012.013.352.355.037.031.106.11c.287.281.584.551.88.823l.068.066.02.017.007.008.01.009.374.34.019.02c.379.335.76.661 1.138.977l.022.019.216.178.146.118-.004-.005.22.173c.319.257.634.506.937.736l.086.066.039.031.25.186.058.046.046.031.266.191.808.568.227.16.027.02.281.191.013.004.143.093c.273.186.567.367.856.552l.45.287.247.15.139.081.091.053c.451.271.876.517 1.265.73l.036.02.242.131.017.012c.537.287 1.047.55 1.531.789l.083.04.264.127.003-.003.773.352.366.168.447.204.125.055.036.015.059.026.744.298.127.047.835.335.066.024.206.072.396.138.122.041c.398.141.796.284 1.201.415l.096.028.034.011.015.008c.623.194 1.245.373 1.865.541l.025.006.104.026-.036-.008c.549.143 1.088.269 1.624.388h.007l.197.052.208.045c.51.11 1.03.201 1.554.292l.147.04.369.057c.314.051.629.093.944.135l.137.371.005.016c.862 2.352 1.795 4.689 2.798 7.01 14.786 40.917 55.657 72.634 102.297 78.434 46.643 5.799 96.431-25.2 116.713-67.092.874-1.603 1.673-3.176 2.4-4.7 2.011-2.069 3.573-4.218 4.61-6.493 1.235-2.679 1.652-5.497 1.537-7.801z"/><polygon fill="#654E44" points="250.21,121.454 250.215,121.465 250.217,121.468"/><polygon fill="#654E44" points="44.402,235.998 44.399,235.996 44.397,235.996"/><polygon fill="#654E44" points="31.193,223.623 31.195,223.628 31.195,223.625"/><polygon fill="#654E44" points="31.2,223.636 31.203,223.637 31.195,223.628"/><polygon fill="#654E44" points="25.016,210.532 25.009,210.513 25.007,210.51"/><polygon fill="#654E44" points="24.492,208.463 24.489,208.456 24.487,208.453"/><polygon fill="#654E44" points="32.395,225.266 32.411,225.284 32.389,225.257 32.376,225.241"/><path fill="#132034" d="M251.333 37.05c-2.259-2.511-4.87-4.404-7.709-5.805-.523-.193-1.051-.386-1.589-.542-.265-.174-.533-.34-.806-.501-2.51-.961-5.166-1.588-7.897-1.94-13.551-1.743-28.979 3.189-37.802 6.693l-1.463.613c-.743.318-1.49.64-2.246.973-1.272.56-2.559 1.146-3.874 1.759l-.572.269-2.395-2.782-1.08-1.256-.997-1.16-.43-.501-9.093-10.559-.791-.919-.977-1.133-.175.039-2.571.582-2.971.672c-1.643-.761-3.593-1.306-5.853-1.586-4.522-.57-10.267-.046-16.809 1.645-6.544 1.68-13.88 4.505-21.66 8.379-15.562 7.744-32.887 19.679-49.557 34.887-5.816 5.304-11.239 10.723-16.227 16.159-4.843 5.273-9.273 10.563-13.248 15.781-8.071 10.593-14.258 20.897-18.21 30.088-2.638 6.125-4.271 11.751-4.866 16.566-.439 3.502-.324 6.563.261 9.093.19.819.442 1.562.726 2.274.589 1.494 1.364 2.783 2.365 3.886l10.086 10.566 1.082 1.132.071-.077c.308-.355.622-.709.942-1.058l.085-.093.354-.363c.303-.316.608-.632.92-.941l.588-.562.574-.546.269-.235.63-.551c.295-.255.591-.508.896-.757l.537-.432.078-.061c.32-.251.645-.498.969-.74l.617-.454c.337-.24.682-.476 1.026-.709l.623-.413c.354-.23.715-.453 1.076-.674l.625-.376c.379-.222.762-.432 1.145-.642l.61-.332.231-.123.036-.02c.325-.167.656-.322.986-.48l.552-.269c.276-.13.559-.25.84-.373l.732-.317.273-.12c.622-.254 1.25-.494 1.884-.718l.609-.205.658-.216.256-.087.394-.124.813-.229.201-.056c.315-.088.628-.176.945-.255.295-.077.593-.14.891-.209.368-.085.737-.169 1.108-.245l.462-.094.473-.079c.363-.066.729-.128 1.094-.185l.969-.137.777-.098.316-.028.354-.041.195-.012c1.294-.051 2.708-.042 4.256.074l.236.015c1.562.128 3.251.376 5.026.752.424.091.847.179 1.284.286l.273-.504c.94-1.686 1.891-3.33 2.852-4.944 5.617-9.417 11.642-17.648 17.791-24.825 2.098-2.452 4.213-4.785 6.329-6.997 8.821-9.21 17.692-16.384 25.804-21.921 1.802-1.23 3.566-2.38 5.285-3.454 2.34-1.461 4.594-2.783 6.739-3.969 1.745-.968 3.419-1.848 5.007-2.646 2.648-1.333 5.061-2.437 7.182-3.346.656-.281 1.288-.545 1.885-.788.926-.377 1.781-.711 2.558-1.003-.669-.069-1.347-.123-2.041-.16-.646-.034-1.303-.046-1.967-.047l-.501.001c-.669.008-1.345.025-2.03.067-1.301.078-2.627.214-3.986.428-.455.071-.911.152-1.373.242 3.376-1.747 6.708-3.059 9.921-4.045 2.136-.657 4.223-1.171 6.227-1.562 2.764-.535 5.376-.845 7.785-1.002 1.616-.104 3.138-.141 4.545-.128 1.419.013 2.722.074 3.895.162 4.096.308 6.563.934 6.563.934-.581-.819-1.313-1.532-2.109-2.154-1.449-1.125-3.119-1.929-4.584-2.5-.576-.224-1.125-.417-1.608-.57-.384-.12-.739-.224-1.035-.303.69-.12 1.371-.219 2.043-.31.715-.096 1.421-.179 2.113-.245 5.903-.552 11.065-.044 14.944.676 4.676.865 7.493 2.04 7.493 2.04-.667-1.299-1.655-2.409-2.737-3.345-.788-.68-1.621-1.271-2.415-1.762 1.566.363 3.055.767 4.472 1.199 3.738 1.142 6.919 2.471 9.422 3.677.811.391 1.551.768 2.217 1.123l.539.294c2.29 1.25 3.557 2.146 3.557 2.146-.383-1.348-1.159-2.619-2.067-3.762-.227-.285-.46-.57-.695-.837l.109.05.513.168.666.233c.997.363 2.521.971 4.311 1.86l.263.131.739.383c.615.325 1.25.684 1.898 1.07.603.36 1.221.746 1.842 1.164.319.214.639.438.959.667.685.489 1.362 1.016 2.036 1.578.688.576 1.367 1.192 2.022 1.847l.392.392c.479.493.942 1.012 1.389 1.55.851 1.016 1.635 2.112 2.334 3.291.837 1.415 1.55 2.943 2.082 4.605l.08.284c.386-.415 1.067-1.161 1.953-2.179 7.363-8.46 29.044-35.946 15.981-52.717z"/><path fill="#8F694C" d="M283.731 242.396l.005-.003s.254-1.902-.753-3.604l-.021-.047-.187-.284-.065-.099c-.109-.149-.244-.292-.38-.436-.247-.258-.535-.5-.877-.717-.178-.117-.372-.226-.579-.327-.571-.273-1.254-.481-2.068-.6-.593-.087-1.271-.11-2.01-.089-.298.012-.593.018-.917.047l-.146.009.054.195.144.539.074.295c.105.421.231.956.36 1.562l-.132.344-.051.117c-.371.858-1.377 2.847-3.617 5.43-.381.439-.803.899-1.257 1.371-6.253 6.459-19.782 15.656-48.247 20.803-9.66 1.362-18.564 1.438-26.171.49-11.248-1.397-19.676-4.991-23.596-9.822-.342-.416-.653-.843-.948-1.275-.219-.318-.431-.641-.624-.967l-.203-.362c-1.686-2.979-2.419-6.226-2.379-9.37.055-3.818 1.246-7.472 3.263-10.279 1.635-2.277 3.811-3.999 6.354-4.793 1.249-.39 2.58-.563 3.981-.469.283.02.657.059 1.124.117l3.843.508.534.066c5.34.664 13.848 1.466 24.135.838 18.717-1.14 43.35-7.027 65.718-27.198l.061-.079v-.035c.076-1.688-.151-4.741-2.285-7.114-.373-.415-.808-.808-1.303-1.171-.283-.208-.578-.407-.905-.591s-.628-.366-.918-.553c-.396-.247-.77-.494-1.102-.741l-.048-.07-.467-.704c-5.803-8.787-13.795-13.888-16.984-16.225-1.502-1.105-2.46-1.608-2.46-1.608-6.9-4.205-7.913-5.6-7.269-17.017.23-4.112.675-9.517 1.135-16.844.061-.953.09-1.859.106-2.749l.008-.628c.008-.841-.002-1.663-.033-2.451l-.008-.226-.02-.243c-.035-.62-.078-1.222-.13-1.807l-.076-.771c-.067-.626-.146-1.235-.244-1.822l-.161-.881c-.063-.329-.129-.651-.197-.966-.068-.309-.136-.622-.213-.92l-.002-.002.002-.002v.002c-.092-.369-.2-.716-.301-1.065l-.108-.384-.118-.343-.038-.116-.117-.334-.005-.023-.293-.789-.031-.085-.101-.242-.12-.299-.026-.057v-.007c-.207-.484-.426-.954-.654-1.394l-.183-.325c-.262-.433-.53-.837-.804-1.228l-.109-.163-.138-.182c-.195-.268-.393-.532-.591-.779l-.269-.337c-.265-.313-.529-.618-.796-.901v-.002l-.006-.046-.008-.055-.015-.077-.02-.108-.018-.108-.033-.175-.018-.106-.049-.247-.018-.088c-.094-.469-.226-1.077-.405-1.797l-.009-.053-.142-.545-.02-.071-.165-.604-.007-.013c-.136-.484-.293-1.006-.466-1.547l-.184-.539c-.124-.379-.255-.758-.4-1.153l-.263-.682c-.14-.367-.289-.733-.45-1.111l-.323-.74c-.17-.372-.345-.741-.528-1.112l-.383-.758c-.199-.38-.413-.751-.63-1.124l-.425-.721c-.252-.402-.522-.794-.797-1.188l-.411-.591-.403-.491c-.314-.401-.626-.804-.972-1.183l-.041-.042-.196-.187c-.443-.476-.91-.941-1.41-1.369l-.09-.076c-.221-.187-.452-.368-.682-.542l-.024-.02-.083-.061c-.198-.149-.404-.293-.612-.433l-.11-.078.044.037c-.219-.162-.617-.373-1.14-.606l-.599-.252c-1.075-.431-2.532-.922-4.257-1.381l-.328-.082c-1.432-.373-3.026-.719-4.715-.988-.57-.09-1.146-.173-1.731-.244l-.837-.078-.34-.032c-1.328-.127-2.675-.215-4.03-.202l-.08.002c-1.745.018-3.493.161-5.158.492.392-.65 1.45-1.369 2.512-1.967 1.322-.748 2.648-1.305 2.648-1.305-.756.056-1.53.163-2.305.288l-.751.122-.486.091-.142.029-.402.086c-3.891.829-7.636 2.229-9.719 3.079l-.781.325-.132.055-.627.082.004-.006c1.536-2.839 3.802-4.369 5.528-5.176.299-.142.588-.269.849-.368l.267-.095.645-.209c.408-.119.673-.171.673-.171l-.539.039-.457.035-.673.05-.402.03c-4.303.466-8.13 1.925-11.407 3.736-2.261 1.249-4.27 2.661-5.959 4.052l-1.382.291c-4.705 1.003-10.077 2.297-15.727 4.03-2.087.641-4.21 1.341-6.354 2.109-1.668.599-3.349 1.251-5.033 1.936-1.206.49-2.412 1.005-3.618 1.542-8.674 3.872-17.22 9.013-24.402 15.909l-.784.734c-.625.622-1.228 1.273-1.828 1.922-.247.265-.506.514-.748.784-.302.335-.583.697-.878 1.04-1.339 1.559-2.627 3.175-3.818 4.894-.889 1.275-1.726 2.598-2.522 3.967l-.098.163c-1.646 2.855-3.081 5.912-4.272 9.189-.596 1.641-1.13 3.333-1.599 5.083-.122.463-.244.928-.358 1.399l-.063.245c-.455 1.899-.818 3.872-1.111 5.903l-.173 1.2c-.127 1.015-.228 2.048-.313 3.096-.077.957-.136 1.929-.18 2.914l-.01.226c-.02.481-.046.96-.056 1.448-.011.559-.008 1.127-.008 1.696l-.003.396c.003 1.108.022 2.227.072 3.367l.012.184c.049 1.134.13 2.29.228 3.458.042.485.083.972.132 1.462l.032.36.09.82c.144 1.291.317 2.604.52 3.938l.164 1.11c.188 1.166.391 2.342.62 3.537 0 0-.208-1.533-.078-3.79.031-.519.081-1.073.151-1.664.162-1.28.435-2.694.901-4.149.114-.357.244-.716.382-1.077l.192-.47c.275-.668.585-1.339.959-1.999.085.472.176.94.271 1.415l.029.153-.002.216-.01.94c-.005.721-.005 1.532.002 2.418.009.889.027 1.842.059 2.854.129 4.242.495 9.366 1.411 13.729 0 0 .173-7.935 1.516-8.832 0 0 2.349 14.694 4.528 20.24.283.719.564 1.292.835 1.65l-.056-1.457-.311-8.168.044-.839c1.633 3.348 3.493 6.786 5.593 10.318.583.978 1.177 1.96 1.795 2.953-4.038 3.55-7.771 8.574-10.451 14.582-.427.961-.83 1.944-1.201 2.952-.21.573-.41 1.158-.601 1.748l-.176.561c-.128.415-.254.829-.374 1.252l-.176.647c-.112.421-.22.844-.32 1.272l-.141.6c-.14.612-.269 1.228-.383 1.851l-.01.058c-.112.625-.212 1.257-.3 1.892l-.078.616c-.059.452-.11.907-.154 1.364l-.063.696c-.039.461-.069.927-.093 1.39l-.032.631c-.028.672-.043 1.347-.041 2.028l.002.088c0 .523.015 1.046.034 1.572.022.531.054 1.062.093 1.596l.015.217.007.134c.051.647.12 1.298.2 1.954l.088.622c.061.447.122.896.199 1.349l.133.752c.077.414.154.826.242 1.241l.175.8c.093.402.188.808.293 1.214l.214.813c.113.407.227.814.352 1.223l.246.807c.137.423.281.847.428 1.27l.267.762c.172.469.355.937.546 1.406l.249.63c.566 1.361 1.201 2.728 1.908 4.095l.328.609c.256.479.518.959.791 1.438l.444.752c.257.433.516.866.789 1.299l.515.805c.271.415.549.833.833 1.247l.575.825c.292.414.595.827.905 1.238.201.273.402.545.61.815.329.424.664.847 1.01 1.267l.624.773c.385.46.786.922 1.19 1.38l.564.649c.607.674 1.229 1.347 1.879 2.017l-.003-.003c-.003-.006-.378-.547-.888-1.494l-.018-.031-.297-.576-.032-.059-.33-.688-.022-.042c-.118-.259-.24-.533-.359-.82-.957-2.302-1.887-5.495-1.768-9.059.37.496.747.973 1.123 1.461.436.888.991 1.988 1.638 3.227l.678 1.277c.951 1.754 2.053 3.701 3.254 5.65 1.443 2.335 3.03 4.676 4.667 6.695l-.003-.002c-.007-.014-1.906-3.979-2.543-6.582-.179-.729-.264-1.358-.17-1.754l.459.472.461.473c.301.403.686.911 1.114 1.475l.216.283.669.878.012.017.854 1.106c2.672 3.434 6.229 7.827 8.766 10.24.846.804 1.577 1.39 2.125 1.644l-3.659-6.557c8.284 6.74 42.461 15.394 76.131 5.734 4.064-1.163 8.125-2.601 12.125-4.341 2.418-1.045 4.81-2.195 7.177-3.468l.345-.19c1.657-.906 3.301-1.88 4.932-2.906l.036-.021c1.225-.771 2.438-1.578 3.641-2.416 2.01-1.418 4.002-2.909 5.942-4.531l.006-.003.008-.006.344-.294c1.924-1.681 3.725-3.41 5.397-5.171 2.208-2.324 4.193-4.698 5.99-7.079l.132-.174c.439-.586.869-1.171 1.286-1.75l.117-.171.392-.583c.581-.835 1.152-1.67 1.691-2.5l.39-.601.816-1.314.605-1.02.651-1.101c.376-.664.743-1.323 1.096-1.977l.405-.77c.268-.51.532-1.014.781-1.512l.347-.697.103-.219c.312-.629.61-1.253.897-1.866l.055-.131c1.083-1.012 1.925-1.974 2.602-2.894l.29-.392c1.51-2.169 1.999-4.083 2.026-5.803z"/><path fill="#8F694C" d="M82.585 218.055l-.083-.457.027-.01c-.395-2.167-.692-4.394-.906-6.667l-.054-.479c-.375.115-.798.612-1.223 1.29-.158.253-.315.531-.471.824-1.138 2.136-2.163 5.103-2.163 5.103.08-.992.189-2.019.31-3.052l.047-.358c.127-1.05.273-2.111.429-3.164l.057-.379c.182-1.187.375-2.367.575-3.506l.077-.439.015-.073.071-.397.104-.587c.164-.901.333-1.773.496-2.601.149-.748.293-1.456.432-2.122l.044-.214.063-.301.061-.3.007-.035.108-.495.009-.043.093-.436.148-.678.013-.06.112-.509.142-.638.002-.005.003-.006.073-.316.004-.02.063-.279.127-.546.032-.13.012-.048.037-.153.024-.106.005-.015-.017.014-.23.208c-.203.182-.41.356-.6.558l-.209.229c-.223.251-.44.512-.643.791l-.107.135c-.251.351-.486.719-.708 1.092v.002l-.028.049-.001.002-.09.166-.149.277c-.129.233-.261.461-.376.697l-.006.009-.004.008-.007.021-.043.087-.042.09c-.181.374-.344.745-.499 1.111-.434 1.029-.771 2.011-1.023 2.832l-.236.81c-.146.528-.249.942-.295 1.146l-.002.018-.032.137v0l.013-.159c.017-.315.053-.628.078-.94.049-.657.09-1.317.164-1.97.058-.549.142-1.088.22-1.634l.076-.51.109-.752.132-.692.002-.017v-.002l.048-.258.015-.068.158-.846.061-.327.039-.193.007-.035.059-.275.079-.335.288-1.221.017-.068.215-.903.003-.013.007-.021.025-.086c.158-.613.334-1.212.51-1.815l.046-.165.047-.167.097-.342c.292-.979.604-1.946.934-2.89l.042-.119c.284-.802.572-1.591.872-2.369l.034-.09.411-1.01.021-.05c.206-.505.408-1.013.618-1.502l.001-.005v-.002l.004-.007.024-.061.388-.858.004-.007.028-.058v-.003l.229-.515.372-.826.112-.241.002-.011 2.133-3.834.262-.482.044-.079.11-.197.693-1.268.978-1.76c.626-1.128 1.162-2.084 1.488-2.661l.334-.596.015-.029h-.002l-.007-.006-.021-.015c-.082-.056-.73-.501-1.796-1.147-1.215-.734-2.983-1.727-5.134-2.724-.688-.321-1.413-.638-2.172-.95-.911-.373-1.865-.736-2.858-1.071l-.784-.234c-.832-.262-1.687-.498-2.56-.707l-.049-.011c-.601-.145-1.196-.293-1.811-.408-.483-.09-.967-.181-1.458-.248-.234-.033-.476-.051-.712-.073l-.701-.071c-.662-.058-1.326-.089-1.99-.104-.323-.007-.645-.018-.967-.01-1.445.031-2.863.16-4.257.358l-.254.039c-2.512.377-4.936 1.01-7.243 1.88-.784.295-1.557.613-2.314.961l-.644.31-.78.381c-2.29 1.179-4.428 2.604-6.391 4.228l-.07.06c-1.694 1.404-3.25 2.962-4.655 4.654-.403.483-.791.976-1.167 1.479-.444.595-.873 1.203-1.282 1.826-.769 1.175-1.469 2.398-2.099 3.666-.222.446-.439.895-.642 1.35l-.107.262c-1.296 2.966-2.205 6.141-2.653 9.453-.088.65-.161 1.306-.215 1.967l-.019.248c-.039.523-.064 1.05-.082 1.579-.02.647-.023 1.299-.008 1.953l.015.311c.017.509.036 1.013.074 1.518l.028.264.032.35c.034.397.07.794.117 1.183l.016.089.001.026.002.004.088.59c.052.354.1.711.159 1.06l.151.758c.066.326.124.658.2.981l.198.788.044.185.07.273.054.209.066.253.245.812c.088.286.171.575.266.855.09.277.192.55.292.825l.081.22.214.591.342.833.319.759.198.421.195.419.344.712.446.848.357.66c.161.288.334.571.505.859l.364.603c.183.291.374.571.565.855l.374.557c.202.288.412.574.623.86l.376.501c.223.294.455.58.688.863l.371.452c.244.289.496.572.752.857l.364.398c.266.29.54.574.818.85l.354.354c.288.285.588.563.885.839l.338.307c.312.279.632.552.957.819l.317.266c.337.276.681.541 1.028.805l.296.224c.363.264.727.521 1.096.773l.276.188c.382.256.771.508 1.163.747l.25.15c.407.25.822.48 1.239.713l.214.121c.433.233.87.454 1.309.672l.188.089c.455.22.911.427 1.374.628l.164.072c.475.197.953.387 1.436.571l.135.048c.498.181.993.354 1.501.518l.103.033.747.215.816.239.075.02c.538.142 1.077.268 1.621.385l.046.014.01.002c.549.117 1.105.222 1.665.309l.027.009c1.718.276 3.478.432 5.269.453.426.008.853.012 1.28.008.574-.016 1.162-.051 1.752-.101.807-.065 1.624-.161 2.447-.285.727-.106 1.449-.234 2.172-.386 1.125-.232 2.236-.507 3.308-.817 3.212-.935 6.051-2.178 7.748-3.445 0 0-1.116-4.943-2.06-9.967l-.299-1.655z"/><polygon fill="#8F694C" points="228.96,99.269 228.965,99.271 228.952,99.262"/><path fill="#2D82C1" d="M162.806 32.332l-.407-5.008 2.507-5.548.991-.224c-1.643-.761-3.593-1.306-5.853-1.586-4.522-.57-10.267-.046-16.809 1.645-6.544 1.68-13.88 4.505-21.66 8.379-15.562 7.744-32.887 19.679-49.557 34.887-5.818 5.304-11.241 10.723-16.229 16.159-4.843 5.273-9.273 10.563-13.248 15.781-8.071 10.593-14.258 20.897-18.21 30.088-2.638 6.125-4.271 11.751-4.866 16.566-.439 3.502-.324 6.563.261 9.093.19.819.442 1.562.726 2.274.589 1.494 1.364 2.783 2.365 3.886l10.086 10.566 1.082 1.132.071-.077c.308-.355.622-.709.942-1.058l.085-.093.354-.363c.303-.316.608-.632.92-.941l.588-.562.574-.546.269-.235.63-.551c.295-.255.591-.508.896-.757l.537-.432.078-.061c.32-.251.645-.498.969-.74l.617-.454c.337-.24.682-.476 1.026-.709l.623-.413c.354-.23.715-.453 1.076-.674l.625-.376c.379-.222.762-.432 1.145-.642l.61-.332.231-.123.014-.042c2.414-6.685 6.032-13.943 10.721-21.505 5.761-9.288 13.121-19.029 21.86-28.729 5.495-6.104 11.53-12.19 18.044-18.134 8.43-7.683 17.022-14.538 25.498-20.479 5.709-4.001 11.359-7.565 16.873-10.691.523-.297 1.048-.603 1.567-.89 1.469-.814 2.925-1.585 4.372-2.331 3.149-1.628 6.246-3.105 9.262-4.41l-1.479-1.777-.244-.292-1.817-2.184-10.432-12.546.095-8.974-.115-.13 7.36-2.195 14.376 7.358z"/><path fill="#FBE8CC" d="M283.731 242.396l.005-.003s.254-1.902-.753-3.604l-.021-.047-.187-.284-.065-.099c-.109-.149-.244-.292-.38-.436-.247-.258-.535-.5-.877-.717-.178-.117-.372-.226-.579-.327-.571-.273-1.254-.481-2.068-.6-.593-.087-1.271-.11-2.01-.089-.298.012-.593.018-.917.047l-.146.009.054.195.144.539.074.295c.105.421.231.956.36 1.562l-.132.344-.051.117c-.371.858-1.377 2.847-3.617 5.43-.381.439-.803.899-1.257 1.371-6.253 6.459-19.782 15.656-48.247 20.803-9.66 1.362-18.564 1.438-26.171.49-11.248-1.397-19.676-4.991-23.596-9.822-.342-.416-.653-.843-.948-1.275-.219-.318-.431-.641-.624-.967l-.203-.362c-1.686-2.979-2.419-6.226-2.379-9.37.055-3.818 1.246-7.472 3.263-10.279 1.635-2.277 3.811-3.999 6.354-4.793 1.249-.39 2.58-.563 3.981-.469.283.02.657.059 1.124.117l3.843.508.534.066c5.34.664 13.848 1.466 24.135.838 18.717-1.14 43.35-7.027 65.718-27.198l.061-.079v-.035c.076-1.688-.151-4.741-2.285-7.114-.373-.415-.808-.808-1.303-1.171-.283-.208-.578-.407-.905-.591s-.628-.366-.918-.553c-.396-.247-.77-.494-1.102-.741l-.048-.07-.467-.704c-5.803-8.787-13.795-13.888-16.984-16.225-1.502-1.105-2.46-1.608-2.46-1.608-6.9-4.205-7.913-5.6-7.269-17.017.23-4.112.675-9.517 1.135-16.844.061-.953.09-1.859.106-2.749l.008-.628c.008-.841-.002-1.663-.033-2.451l-.008-.226-.02-.243c-.035-.62-.078-1.222-.13-1.807l-.076-.771c-.067-.626-.146-1.235-.244-1.822l-.161-.881c-.063-.329-.129-.651-.197-.966-.068-.309-.136-.622-.213-.92l-.002-.002.002-.002v.002c-.092-.369-.2-.716-.301-1.065l-.108-.384-.118-.343-.038-.116-.117-.334-.005-.023-.293-.789-.031-.085-.101-.242-.12-.299-.026-.057v-.007c-.207-.484-.426-.954-.654-1.394l-.183-.325c-.262-.433-.53-.837-.804-1.228l-.109-.163-.138-.182c-.195-.268-.393-.532-.591-.779l-.269-.337c-.265-.313-.529-.618-.796-.901l-.002-.002c-.326-.345-.651-.669-.983-.969-.381-.237-.755-.45-1.131-.636l-.371-.167c-.246-.116-.497-.228-.745-.321l-.432-.146c-.222-.072-.448-.144-.673-.203l-.444-.098c-.22-.046-.435-.085-.651-.116l-.444-.05c-.215-.022-.432-.031-.647-.04l-.433-.004c-.222.004-.441.015-.66.032l-.406.037-.296.044-.406.064-.355.065c-.272.056-.544.127-.814.204l-.236.062c-.714.212-1.424.484-2.126.805l-.235.111c-.273.127-.55.258-.822.399l-.315.17c-.248.129-.497.265-.743.405l-.338.198-.732.437-.331.205-.768.488-.283.186-.866.577-.173.116-.984.676-.012.01-.053.031h.005c-.613.422-1.229.854-1.85 1.287-.521.363-1.049.725-1.582 1.085l-.256.176c-.537.36-1.079.712-1.622 1.061l-.275.173c-.547.339-1.096.67-1.649.984l-.291.163c-.557.313-1.122.605-1.694.886l-.284.133c-.576.276-1.167.531-1.763.757l-.247.093c-.615.226-1.24.432-1.875.599l-.166.039c-.671.172-1.342.312-2.032.404-1.157.157-2.315.208-3.479.214-1.896.008-3.797-.146-5.704-.431-.638-.096-1.279-.208-1.92-.325l-.679-.122c-1.664-.323-3.339-.71-5.025-1.117-.709-.168-1.416-.339-2.126-.512-1.144-.278-2.297-.547-3.452-.81l-.682-.16.011-.001-.488-.103-.767-.168-.735-.146-.127-.027-.085-.016-.676-.134c-.523-.099-1.051-.191-1.578-.279l-.469-.071c-.393-.062-.783-.122-1.173-.174l-.595-.07-.043-.005c-.343-.045-.684-.084-1.025-.118l-.683-.062-.309-.023-.703-.05-.677-.038c-.36-.015-.715-.023-1.071-.029l-.322-.005-.301-.004c-.441.001-.891.009-1.339.029l-.358.011c-.569.024-1.143.069-1.718.129l-.449.052c-.37.044-.743.094-1.116.151l-.168.023-.611.105c-.384.07-.762.144-1.146.227l-.662.152c-.377.09-.759.192-1.14.299l-.65.188c-.411.125-.821.265-1.234.412l-.562.197c-.603.222-1.2.465-1.809.734-4.743 2.73-8.817 6.458-12.056 10.806-1.08 1.448-2.066 2.966-2.954 4.538-.939 1.665-1.755 3.394-2.463 5.166-.208.516-.405 1.034-.593 1.559-.31.883-.605 1.774-.857 2.676l-.073.292c-.278 1.017-.518 2.042-.715 3.076-.21 1.081-.37 2.167-.49 3.257-.065.59-.125 1.18-.164 1.771-.103 1.589-.09 3.184.005 4.776l.029.432c.027.408.042.812.085 1.218.117 1.133.279 2.266.506 3.389.08.415.193.805.292 1.206.095.383.179.776.281 1.15v-.002c.792 2.869 1.936 5.454 3.293 7.803 5.168 8.93 13.665 14.269 19.822 17.135 2.393 1.056 4.894 1.999 7.49 2.828l-.312.204c-.459.115-.996.258-1.592.427-.9.254-1.94.569-3.088.956-1.289.434-2.71.957-4.209 1.576-3.995 1.656-8.531 4.012-12.552 7.264-.503.405-.997.825-1.481 1.259-.825.743-1.611 1.534-2.368 2.362l-.261.28-.339.388c-.286.333-.568.675-.842 1.022l-.329.419c-.361.478-.713.96-1.048 1.464-.327.492-.642 1.001-.939 1.517-2.383 4.158-3.733 9.137-3.317 15.072l.012-.061.007-.044.044-.221.012-.049.071-.314.017-.072.115-.459.03-.11.163-.586.002-.002.205-.662.046-.142.256-.734.049-.122c.087-.239.183-.485.288-.738l.049-.118c.113-.274.237-.557.367-.843l.083-.181c.139-.293.281-.59.439-.892v-.002l.02-.033c.236-.451.5-.91.782-1.372l.326-.522.09-.147.002-.003c.242-.361.496-.723.769-1.079.223-.292.459-.582.703-.872l.239-.269c.195-.221.398-.439.608-.654l.258-.259c.286-.281.582-.557.895-.824l.025-.022v0s-5.406 12.233-3.055 21.932l-.002-.08v-.061l-.002-.198-.001-.052.006-.353.002-.054.017-.482.003-.052.038-.599.003-.054.063-.692.007-.059.096-.764.009-.072c.042-.281.088-.572.144-.874l.013-.072.029-.151v-.005c.066-.338.146-.686.234-1.036l.018-.071c.092-.341.19-.688.299-1.036l.103-.32.076-.223v-.003c.103-.288.215-.573.336-.857l.02-.047.001-.003c.169-.398.366-.785.576-1.167l.172-.303c.224-.378.459-.749.727-1.101l.011-.017v0h.001s-.311 3.011-.23 6.596c.015.563.042 1.143.078 1.727.022.389.047.78.083 1.17.239-3.852.943-7.47 1.968-10.844-1.025 3.376-1.729 6.993-1.966 10.849v.001c-.155 2.457-.121 5.009.132 7.652.43 4.407 1.477 9.07 3.322 13.978 0 0-1.691-5.643.746-11.288.219.513.454 1.029.701 1.552.2 1.674.537 4.053 1.03 6.673.472 4.361 2.559 17.452 11.451 26.658 0 0-3.36-4.36-2.839-10.039.352.746.699 1.419 1.03 1.999 1.521 2.848 4.547 8.149 7.846 11.826 0 0-2.677-5.184-2.053-6.301 0 0 8.727 10.851 11.503 11.91l-3.65-6.052-.083-.179c12.683 9.196 30.08 12.609 51.598 6.617 3.699-1.032 7.519-2.341 11.459-3.946 2.418-1.045 4.81-2.195 7.177-3.468l.345-.19c1.657-.906 3.301-1.88 4.932-2.906l.036-.021c1.225-.771 2.438-1.578 3.641-2.416 2.01-1.418 4.002-2.909 5.942-4.531l.006-.003.008-.006.344-.294c1.924-1.681 3.725-3.41 5.397-5.171 2.208-2.324 4.193-4.698 5.99-7.079l.132-.174c.439-.586.869-1.171 1.286-1.75l.117-.171.392-.583c.581-.835 1.152-1.67 1.691-2.5l.39-.601.816-1.314.605-1.02.651-1.101c.376-.664.743-1.323 1.096-1.977l.405-.77c.268-.51.532-1.014.781-1.512l.347-.697.103-.219c.312-.629.61-1.253.897-1.866l.055-.131c1.083-1.012 1.925-1.974 2.602-2.894l.29-.392c1.497-2.172 1.986-4.086 2.013-5.806z"/><path fill="#FBE8CC" d="M81.57 210.442c-.375.115-.798.612-1.223 1.29-.158.253-.315.531-.471.824-1.138 2.136-2.163 5.103-2.163 5.103.08-.992.189-2.019.31-3.052l.047-.358c.127-1.05.273-2.111.429-3.164l.057-.379c.182-1.187.375-2.367.575-3.506l.077-.439.015-.073.071-.397.104-.587c.164-.901.333-1.773.496-2.601.149-.748.293-1.456.432-2.122l.044-.214.063-.301.061-.3.007-.035.108-.495.009-.043.093-.436.148-.678.013-.06.112-.509.142-.638.002-.005.003-.006.073-.316.004-.02.063-.279.127-.546.032-.13.012-.048.037-.153.024-.106.005-.015-.017.014-.23.208c-.203.182-.41.356-.6.558l-.209.229c-.223.251-.44.512-.643.791l-.107.135c-.251.351-.486.719-.708 1.092v.002l-.028.049-.001.002-.09.166-.149.277c-.129.233-.261.461-.376.697l-.006.009-.004.008-.007.021-.043.087-.042.09c-.181.374-.344.745-.499 1.111-.434 1.029-.771 2.011-1.023 2.832l-.236.81c-.146.528-.249.942-.295 1.146l-.002.018-.032.137v0l.013-.159c.017-.315.053-.628.078-.94.049-.657.09-1.317.164-1.97.058-.549.142-1.088.22-1.634l.076-.51.109-.752.132-.692.002-.017v-.002l.048-.258.015-.068.158-.846.061-.327.039-.193.007-.035.059-.275.079-.335.288-1.221.017-.068.215-.903.003-.013.007-.021.025-.086c.158-.613.334-1.212.51-1.815l.046-.165.047-.167.097-.342c.292-.979.604-1.946.934-2.89l.042-.119c.284-.802.572-1.591.872-2.369l.034-.09.411-1.01.021-.05c.206-.505.408-1.013.618-1.502l.001-.005v-.002l.004-.007.024-.061.388-.858.004-.007.028-.058v-.003l.229-.515.372-.826.112-.241-.54-.27-.103-.051-.19-.098c-1.17-.56-2.4-1.008-3.674-1.338l-.203-.051c-.818-.203-1.653-.359-2.505-.458-.493-.057-.988-.103-1.491-.122-.417-.019-.835-.023-1.258-.015-.635.015-1.259.067-1.875.137l-.577.083c-.304.046-.604.104-.907.159l-.359.067-.632.143c-.413.102-.815.215-1.215.342l-.552.169c-.542.191-1.074.399-1.594.629l-.601.294-.708.363-.241.123c-.256.143-.508.296-.757.446-.232.143-.465.291-.688.445-.276.181-.544.364-.805.557l-.477.375c-.425.337-.829.698-1.226 1.067-.204.19-.402.386-.599.583-.348.345-.687.695-1.005 1.064l-.161.187c-.168.199-.325.409-.481.619l-.024.029-.02.028-.326.417-.04.057-.042.056-.003.005-.002.003c-.642.898-1.204 1.854-1.692 2.847l-.202.435c-.225.486-.433.982-.621 1.49l-.224.601-.003.002v.002l-.002.002c-.172.517-.323 1.04-.452 1.58l-.049.201-.047.254-.006.021c-.088.391-.173.78-.234 1.177l-.077.591-.009.057-.067.635-.055.482c-.046.626-.066 1.256-.051 1.895.012.492.057.979.103 1.464l.003.027.016.227c.027.269.073.533.112.8.145.968.342 1.916.62 2.832.208.698.452 1.379.732 2.042.516 1.22 1.155 2.368 1.887 3.449 1.538 2.278 3.515 4.229 5.825 5.719 1.311.844 2.727 1.529 4.221 2.055 1.435.508 2.933.876 4.494 1.048.352.035.705.062 1.062.087.533.035 1.065.057 1.606.047.5-.012.986-.074 1.477-.12.281-.026.569-.03.847-.068.706-.098 1.399-.242 2.08-.413l.154-.032c.283-.074.547-.179.821-.263.858-.262 1.688-.575 2.494-.947l.176-.078c.225-.096.456-.188.674-.3l.027-.01c-.395-2.167-.692-4.394-.906-6.667l-.053-.483z"/><polygon points="31.212,223.649 31.195,223.625 31.195,223.628 31.203,223.637 31.222,223.668" fill="none"/><polygon fill="#4E9DD6" points="165.945,33.938 166.318,34.129 166.312,34.079"/><path fill="#fff" d="M276.006 237.276l-.074-.295-.144-.539c-.612-1.988-1.389-3.542-2.079-4.648-.884-1.431-1.617-2.136-1.617-2.136.148-.504.265-.995.369-1.479.134-.634.239-1.254.311-1.854.532-4.533-.682-8.061-1.654-10.051-.153-.318-.3-.594-.434-.832-.701.499-1.407.988-2.116 1.468-13.438 9.099-28.563 14.938-44.94 17.446-11.286 1.73-23.16 1.892-35.505.388l.215.064s-7.44 1.018-9.459 8.155l.127.072-.615 4.788c.218 6.482 3.181 10.539 6.555 12.675 3.506 1.338 7.738 2.356 12.439 2.941 8.184 1.017 17.574.748 27.159-.774l.051-.008.049-.007c12.75-1.708 30.745-8.518 43.609-17.305 2.932-2.002 5.599-4.104 7.873-6.274l.085-.083.156-.15c-.13-.606-.256-1.141-.361-1.562z"/><path fill="#F1D1AB" d="M251.682 175.494c-6.9-4.205-7.913-5.6-7.269-17.017.23-4.112.675-9.517 1.135-16.844.061-.953.09-1.859.106-2.749l.008-.628c.008-.841-.002-1.663-.033-2.451l-.008-.226-.02-.243c-.035-.62-.078-1.222-.13-1.807l-.076-.771c-.067-.626-.146-1.235-.244-1.822l-.161-.881c-.063-.329-.129-.651-.197-.966-.068-.309-.136-.622-.213-.92l-.002-.002.002-.002c-.982-1.463-2.152-2.771-3.521-3.881l-.269-.201-.054-.041-.203-.152-.068-.05c-.197-.152-.405-.301-.61-.438-.221-.146-.441-.291-.667-.425-2.039-1.241-4.314-2.021-6.749-2.382-1.345-.198-2.738-.268-4.167-.212-.664.024-1.335.083-2.011.162-1.761.206-3.562.582-5.392 1.139-.613.422-1.229.854-1.85 1.287-.521.363-1.049.725-1.582 1.085l-.256.176c-.537.36-1.079.712-1.622 1.061l-.275.173c-.547.339-1.096.67-1.649.984l-.291.163c-.557.313-1.122.605-1.694.886l-.284.133c-.576.276-1.167.531-1.763.757l-.247.093c-.615.226-1.24.432-1.875.599l-.166.039c-.671.172-1.342.312-2.032.404-1.157.157-2.315.208-3.479.214-1.896.008-3.797-.146-5.704-.431-.638-.096-1.279-.208-1.92-.325l-.679-.122c-1.664-.323-3.339-.71-5.025-1.117-.709-.168-1.416-.339-2.126-.512-1.144-.278-2.297-.547-3.452-.81l-.682-.16c-.968.053-1.94.147-2.916.27l-.213.027c-2.832.372-5.682 1.046-8.495 2.019l-.466.156c-.44.157-.877.329-1.313.5-.586.232-1.172.474-1.753.731-4.077 1.799-8.037 4.249-11.718 7.36-1.492 1.262-2.886 2.597-4.192 3.984-2.003 2.131-3.775 4.4-5.329 6.761l-.254.396c-.827 1.284-1.586 2.592-2.272 3.923-.248.475-.498.952-.726 1.43l-.046.094c-.739 1.568-1.381 3.159-1.933 4.767l-.087.288-.212.701c-.235.747-.452 1.498-.65 2.247-.201.779-.391 1.56-.547 2.342l-.097.504c-.09.477-.176.955-.252 1.434-.266 1.755-.412 3.507-.449 5.248-.013.437-.029.879-.024 1.312.792 2.869 1.936 5.454 3.293 7.803 5.168 8.93 13.665 14.269 19.822 17.135 2.393 1.056 4.894 1.999 7.49 2.828l.066.111.003.002.013-.005.166-.129c.332-.253.664-.506 1.005-.755l.365-.271c.351-.255.708-.515 1.075-.769l.374-.257c.366-.257.743-.518 1.13-.771l.386-.254c.388-.257.783-.513 1.188-.768l.4-.251 1.241-.759.434-.258c.419-.244.845-.494 1.28-.739l.471-.265c.429-.24.866-.479 1.31-.717l.533-.281c.436-.231.881-.462 1.33-.689l.579-.291c.448-.225.903-.444 1.356-.665l.654-.31c.448-.211.9-.42 1.362-.628l.735-.328c.446-.198.9-.397 1.361-.593l.822-.349 1.356-.556.927-.365c.444-.174.888-.348 1.342-.518.339-.131.686-.26 1.029-.384.438-.161.872-.321 1.322-.48l1.146-.398c.431-.147.862-.299 1.3-.44l1.269-.412 1.265-.403 1.418-.432 1.206-.356c.516-.152 1.043-.295 1.564-.441l.782-.221c2.043-5.143 8.108-17.9 18.499-19.296 1.117-.162 2.126-.22 3.08-.23l.723-.015c-.119-.74-.214-1.511-.265-2.313-.323-5.496 1.365-10.066 3.774-10.211 1.866-.151 3.35 2.574 3.604 3.527.708 1.671 1.206 3.805 1.351 6.175.126 2.163-.074 4.16-.487 5.826.21.216.385.455.572.686 2.38 2.952 2.782 7.049 2.686 9.951.925-.094 1.874-.174 2.824-.256l.725-.068.149-.013.412-.032c1.175-.098 2.363-.189 3.569-.275l.054-.003c2.73-.189 5.536-.351 8.428-.475-1.5-1.107-2.458-1.61-2.458-1.61z"/><path fill="#F1D1AB" d="M277.826 252.446c-4.545 4.048-9.306 7.299-14.026 9.907-2.358 1.299-4.699 2.425-7.007 3.427-5.126 2.233-10.045 3.786-14.378 4.843-9.562 2.329-16.306 2.334-16.306 2.334 5.228 2.894 11.849 2.92 16.39 2.461 3.124-.311 5.272-.849 5.272-.849-.098 1.92-.336 3.688-.681 5.336-.379 1.824-.898 3.481-1.522 4.997l-.048.13-.005.009c-.778 1.875-1.717 3.521-2.761 4.97l-.34.475.345-.19c1.657-.906 3.301-1.88 4.932-2.906l.036-.021c1.225-.771 2.438-1.578 3.641-2.416 2.01-1.418 4.002-2.909 5.942-4.531l.006-.003.008-.006.344-.294c1.924-1.681 3.725-3.41 5.397-5.171 2.208-2.324 4.193-4.698 5.99-7.079l.132-.174c.439-.586.869-1.171 1.286-1.75l.117-.171.392-.583c.581-.835 1.152-1.67 1.691-2.5l.39-.601.816-1.314.605-1.02.651-1.101c.376-.664.743-1.323 1.096-1.977l.405-.77c.268-.51.532-1.014.781-1.512l.347-.697.103-.219c.312-.629.61-1.253.897-1.866-.312.285-.625.557-.938.832z"/><path fill="#F1D1AB" d="M163.885 202.105c-1.289.434-2.71.957-4.209 1.576-3.995 1.656-8.531 4.012-12.552 7.264-.503.405-.997.825-1.481 1.259-.825.743-1.611 1.534-2.368 2.362l-.261.28-.339.388c-.286.333-.568.675-.842 1.022l-.329.419c-.361.478-.713.96-1.048 1.464-.327.492-.642 1.001-.939 1.517-2.383 4.158-3.733 9.137-3.317 15.072l.012-.061.007-.044.044-.221.012-.049.071-.314.017-.072.115-.459.03-.11.163-.586.002-.002.205-.662.046-.142.256-.734.049-.122c.087-.239.183-.485.288-.738l.049-.118c.113-.274.237-.557.367-.843l.083-.181c.139-.293.281-.59.439-.892v-.002l.02-.033c.236-.451.5-.91.782-1.372l.326-.522.09-.147.002-.003c.242-.361.496-.723.769-1.079.223-.292.459-.582.703-.872l.239-.269c.195-.221.398-.439.608-.654l.258-.259c.286-.281.582-.557.895-.824l.025-.022v0s-5.406 12.233-3.055 21.932l-.002-.08v-.061l-.002-.198-.001-.052.006-.353.002-.054.017-.482.003-.052.038-.599.003-.054.063-.692.007-.059.096-.764.009-.072c.042-.281.088-.572.144-.874l.013-.072.029-.151v-.005c.066-.338.146-.686.234-1.036l.018-.071c.092-.341.19-.688.299-1.036l.103-.32.076-.223v-.003c.103-.288.215-.573.336-.857l.02-.047.001-.003c.169-.398.366-.785.576-1.167l.172-.303c.224-.378.459-.749.727-1.101l.011-.017v0h.001s-.311 3.011-.23 6.596c.015.563.042 1.143.078 1.727.022.389.047.78.083 1.17.239-3.852.943-7.47 1.968-10.844.285-.931.598-1.837.93-2.73l.139-.386c.32-.846.659-1.667 1.013-2.478l.202-.454c.361-.8.735-1.585 1.126-2.351l.185-.353c.831-1.599 1.722-3.119 2.647-4.559l.202-.315c.352-.538.713-1.058 1.074-1.573l.281-.415.259-.36c.458-.635.92-1.253 1.386-1.853l.222-.281c.486-.614.97-1.214 1.455-1.787l.027-.031c.613-.724 1.223-1.415 1.828-2.074.444-.481.885-.945 1.321-1.394l.503-.503c1.042-1.053 2.048-1.997 2.984-2.835 2.812-2.517 5.003-4.071 5.767-4.589-.459.115-.996.258-1.592.427-.902.254-1.942.57-3.089.956z"/><path fill="#F1D1AB" d="M235.803 175.017s-.029-.312-.142-.783c-.439-1.789-2.208-6.008-9.168-5.339-7.276.701-9.72 6.571-10.346 8.573-.13.415-.187.677-.187.677l.197.168c.923-.784 2.683-.691 4.279.321.73.465 1.311 1.049 1.71 1.666v.002c.614.947.785 1.97.351 2.728-.093.163-.208.3-.342.421 0 0 .279.108.753.245 2.021.597 7.627 1.771 10.662-2.146.146-.188.295-.363.429-.573-.597-.305-.931-1.181-.932-2.221-.005-.499.063-1.033.225-1.567.499-1.647 1.625-2.621 2.511-2.172z"/><path fill="#F1D1AB" d="M199.728 228.469c-4.709.973-8.827 1.695-12.021 2.211l.534.066c5.34.664 13.848 1.466 24.135.838 18.717-1.14 43.35-7.027 65.718-27.198l.061-.079v-.035c.076-1.688-.151-4.741-2.285-7.114-.373-.415-.808-.808-1.303-1.171l-.247-.153c-.588-.327-1.1-.66-1.576-.99-.396-.247-.77-.494-1.102-.741l-.048-.07c-1.375 1.977-2.97 3.857-4.754 5.648-.633.632-1.304 1.242-1.98 1.853-6.17 5.559-14.146 10.189-22.754 14.002-14.305 6.333-30.292 10.444-42.378 12.933z"/><path fill="#F1D1AB" d="M81.262 195.871c-.203.182-.41.356-.6.558l-.209.229c-.223.251-.44.512-.643.791l-.107.135c-.251.351-.486.719-.708 1.092v.002l-.028.049-.001.002-.09.166-.149.277c-.129.233-.261.461-.376.697l-.006.009-.004.008-.007.021-.043.087-.042.09c-.181.374-.344.745-.499 1.111-.434 1.029-.771 2.011-1.023 2.832l-.236.81c-.146.528-.249.942-.295 1.146l-.002.018-.032.137v0l.013-.159c.017-.315.053-.628.078-.94.049-.657.09-1.317.164-1.97.058-.549.142-1.088.22-1.634l.076-.51.109-.752.132-.692.002-.017v-.002l.048-.258.015-.068.158-.846.061-.327.039-.193.007-.035.059-.275.079-.335.288-1.221.017-.068.215-.903.003-.013.007-.021.025-.086c.158-.613.334-1.212.51-1.815l.046-.165.047-.167.097-.342c.292-.979.604-1.946.934-2.89l.042-.119c.284-.802.572-1.591.872-2.369l.034-.09.411-1.01.021-.05c.206-.505.408-1.013.618-1.502l.001-.005v-.002l.004-.007.024-.061.388-.858.004-.007.028-.058v-.003l.229-.515.372-.826.112-.241-.54-.27-.103-.051-.19-.098c-1.17-.56-2.4-1.008-3.674-1.338l-.203-.051c-.818-.203-1.653-.359-2.505-.458-.493-.057-.988-.103-1.491-.122-.417-.019-.835-.023-1.258-.015-.635.015-1.259.067-1.875.137l-.577.083c-.304.046-.604.104-.907.159l-.359.067-.632.143c-.413.102-.815.216-1.215.342l-.552.169c-.542.191-1.074.399-1.594.629l-.601.295-.708.362-.241.123c-.256.143-.508.296-.757.446-.232.143-.465.291-.688.445-.276.181-.544.364-.805.557l-.477.375c-.425.337-.829.698-1.226 1.067-.204.19-.402.386-.599.583-.348.345-.685.695-1.005 1.064l-.161.187c-.168.199-.325.409-.481.619l-.024.029-.02.028-.326.418-.04.056-.042.056-.003.005-.002.003c-.642.902-1.204 1.855-1.692 2.853l-.2.429c-.228.486-.432.982-.623 1.49l-.224.601-.003.002v.002l.122.384c.14.45.281.888.43 1.312l.051.146.057.148c.156.437.317.855.483 1.265.505 1.25 1.037 2.369 1.565 3.357l.236.437.057.104.073.123c.398.707.786 1.332 1.147 1.877.575.867 1.08 1.527 1.438 1.972l.207.253.15.171.221.249-.126-.666c-.325-1.597-.493-3.173-.535-4.715l-.001-.093-.004-.179c-.016-.988-.002-1.967.076-2.921h.003c.1.367.209.72.32 1.07.166.528.336 1.041.515 1.535l.061.177.024.063c.779 2.107 1.665 3.877 2.495 5.304.993 1.707 1.902 2.918 2.444 3.584l.28.334.239.27c-.393-1.695-.591-3.373-.654-5.015-.022-.555-.042-1.107-.031-1.648.009-.693.046-1.377.102-2.051v0c.303 1.151.649 2.219 1.021 3.223l.027.077c1.333 3.614 2.979 6.271 4.115 7.847l.13.174.53.695.295.363.261.306.135.154-.046-.235-.147-.707c-.163-.849-.271-1.69-.351-2.522-.054-.557-.105-1.112-.125-1.661-.02-.521-.016-1.037-.009-1.55l.007-.278.029-.795.01-.164.01-.116c.042-.677.1-1.346.183-2.003v0c.129.437.266.86.405 1.27.105.312.215.61.325.908l.024.061.037.104.066.182c.134.358.273.701.415 1.041.268.634.537 1.232.812 1.793.334.691.674 1.329 1.003 1.912l.554.936c.229.372.452.719.664 1.034.196.291.376.546.55.785l.129.178.452.598.284.353c.224.272.383.452.454.528l.042.045.141.097.047-.358c.127-1.05.273-2.111.429-3.164l.057-.379c.182-1.187.375-2.367.575-3.506l.077-.439.015-.073.071-.397.104-.587c.164-.901.333-1.773.496-2.601.149-.748.293-1.456.432-2.122l.044-.214.063-.301.061-.3.007-.035.108-.495.009-.043.093-.436.148-.678.013-.06.112-.509.142-.638.002-.005.003-.006.073-.316.004-.02.063-.279.127-.546.032-.13.012-.048.037-.153.024-.106.005-.015-.017.014-.231.204z"/><path fill="#F1D1AB" d="M232.73 248.157c1.766-.609 3.304-1.103 4.495-1.623 2.39-1.018 3.674-1.703 3.594-1.957-.081-.26-1.523-.064-4.062.51-1.271.298-2.81.556-4.582.955-.879.21-1.853.332-2.859.527-1.015.175-2.082.397-3.21.519-2.223.315-4.766.603-7.466.916l-4.119.337-4.395.217c-6.007.176-12.64-.096-19.387-1.337-3.559-.627-8.314-2.241-11.734-4.186l-.127-.072c2.019-7.138 9.459-8.155 9.459-8.155l-.215-.064-.376-.041c-1.082-.135-2.033-.263-2.848-.374l-1.527-.2c-.414-.052-.709-.083-.882-.095-4.483-.308-6.939 3.488-7.787 5.134-.121.236-.232.48-.346.73-.646 1.474-1.076 3.174-1.191 4.972-.222 3.354.643 7.039 3.213 10.174 1.713 2.115 4.696 3.98 8.566 5.455-3.374-2.136-6.337-6.192-6.555-12.675 3.82 1.642 8.272 2.646 11.617 3.242 7.163 1.319 14.076 1.477 20.288 1.097 1.553-.131 3.064-.245 4.531-.393l4.277-.554c2.688-.454 5.17-.892 7.498-1.405 1.163-.217 2.239-.536 3.259-.813 1.023-.297 1.988-.521 2.871-.841z"/><path fill="#654E44" d="M226.79 164.615c3.742.088 6.283 1.275 7.979 3.004.411-1.666.614-3.663.482-5.827-.144-2.367-.64-4.501-1.348-6.174-.252-.952-1.738-3.677-3.605-3.528-2.409.147-4.094 4.716-3.77 10.212.047.802.14 1.573.262 2.313z"/><path fill="#654E44" d="M233.11 178.787c.004 1.04.336 1.915.932 2.221.896.446 2.012-.531 2.508-2.178l.107-.429v-.003c.317-1.497-.008-2.944-.813-3.351-.886-.448-2.012.525-2.506 2.17-.161.537-.231 1.071-.228 1.57z"/><path fill="#654E44" d="M216.118 181.439c.396.646.995 1.27 1.76 1.757 1.616 1.024 3.409 1.111 4.32.286.134-.12.252-.261.341-.422.438-.758.267-1.779-.345-2.728l-.004-.002c-.397-.615-.979-1.201-1.708-1.665-1.598-1.015-3.356-1.108-4.279-.321-.152.13-.289.275-.388.45-.419.737-.262 1.718.303 2.645z"/><g fill="#654E44"><path d="M278.153 204.312v-.032l-.104.151.047-.038.057-.081zM276.213 238.995l-.085.081c-2.275 2.172-4.944 4.275-7.873 6.276-12.865 8.788-30.86 15.598-43.612 17.305l-.049.008-.051.008c-9.585 1.523-18.976 1.79-27.159.773-4.701-.585-8.932-1.604-12.439-2.943-3.866-1.474-6.85-3.337-8.566-5.452-2.57-3.136-3.435-6.818-3.212-10.174.117-1.796.547-3.5 1.193-4.974.11-.248.225-.493.344-.729.851-1.646 3.303-5.441 7.788-5.136.171.015.469.043.88.096.434.053.946.122 1.529.201.812.109 1.768.238 2.848.372l.374.043c12.345 1.502 24.219 1.341 35.505-.388 16.377-2.51 31.505-8.349 44.94-17.446.711-.479 1.415-.97 2.116-1.469l7.365-11.018c-22.354 20.139-46.968 26.021-65.674 27.16-10.287.629-18.795-.173-24.133-.837l-.536-.068c-1.603-.204-2.908-.39-3.841-.507-.467-.058-.843-.098-1.126-.117-1.401-.096-2.732.078-3.979.468-2.545.797-4.721 2.515-6.354 4.795-2.019 2.808-3.207 6.46-3.265 10.278-.038 3.144.693 6.393 2.381 9.371l.202.363c.193.326.404.646.623.965.295.432.606.858.95 1.275 3.918 4.831 12.347 8.425 23.594 9.823 7.608.947 16.515.87 26.173-.492 28.464-5.145 41.994-14.342 48.245-20.803.456-.471.876-.93 1.258-1.37 2.239-2.583 3.247-4.569 3.616-5.429l.052-.118.132-.345-.154.154z"/></g><path fill="#E8B683" d="M185.63 140.285c-.897-.489-1.877-.837-2.865-1.083-.654-.161-1.311-.275-1.96-.356l-.73-.073c-3.332-.291-6.213.272-6.213.272-.617.142-1.21.302-1.782.476-4.524 1.373-7.677 3.73-9.879 6.45-1.782 2.201-2.941 4.638-3.681 6.991l-.183.619c-.175.61-.325 1.209-.452 1.798-.418 1.979-.579 3.803-.625 5.247-.057 1.975.097 3.247.097 3.247.787-1.725 1.612-3.307 2.462-4.788 2.109-3.671 4.394-6.63 6.703-9.008 4.501-4.629 9.086-7.073 12.64-8.355 3.837-1.389 6.468-1.437 6.468-1.437z"/><path fill="#E8B683" d="M239.693 133.839l-.15-.199c-.511-.643-1.119-1.238-1.846-1.735-1.72-1.182-4.092-1.798-7.38-1.125 0 0-3.903.922-6.187 3.475 0 0 6.804-2.905 14.006 2.214.656.466 1.313 1.006 1.972 1.615.672.622 1.341 1.311 2.008 2.094 0 0-.286-3.137-2.074-5.84-.106-.17-.227-.337-.349-.499z"/><path fill="#654E44" d="M186.453 183.65c2.606-.805 5.432-1.548 8.456-2.233.525-2.354.656-5.271.282-8.383-.859-7.302-4.154-12.896-7.353-12.5-3.2.395-5.089 6.634-4.226 13.932.436 3.676 1.491 6.923 2.841 9.184z"/><path fill="#FFD14F" d="M171.613 20.259l-6.708 1.517 1.407 12.303-17.883-9.102-7.36 2.195.115.13 21.722 24.757.207-.131.281-.176c.675-.431 1.353-.86 2.036-1.284l.714-.451c.984-.604 1.971-1.197 2.961-1.787l-9.227-10.569 14.93 7.299.056-.032 1.346-.737-1.377-10.661 6.774 7.836.083-.041c.573-.289 1.134-.562 1.698-.84l.177-.086.272-.137.291-.143.723-.356.145-.069c.803-.388 1.592-.758 2.379-1.127l-15.762-18.308z"/><polygon fill="#4E9DD6" points="164.949,22.165 164.905,21.776 164.949,22.166"/><path fill="#4E9DD6" d="M164.905 21.776l.991-.224c-1.643-.761-3.593-1.306-5.853-1.586-4.522-.57-10.267-.046-16.809 1.645-6.544 1.68-13.88 4.505-21.66 8.379-15.562 7.744-32.887 19.679-49.557 34.887-5.817 5.304-11.24 10.723-16.228 16.159l20.249 24.802c5.468-6.035 11.435-12.035 17.863-17.899 8.597-7.837 17.363-14.831 26.029-20.907 8.398-5.884 16.693-10.878 24.677-14.919l-3.518-15.837.095-8.974-.115-.13 7.36-2.195 14.376 7.355-.407-5.008 2.507-5.548z"/><polygon fill="#132034" points="164.905,21.776 162.398,27.324 162.806,32.332 166.312,34.079"/><polygon fill="#132034" points="159.879,37.662 174.809,44.961 169.105,48.231"/><polygon fill="#132034" points="174.833,33.532 176.21,44.192 181.607,41.368"/><path fill="#fff" d="M231.318 29.592c.921-.037 1.821-.046 2.707-.029 2.512.052 4.872.348 7.108.907l.364.081.027.007.087.02.22.063.203.061c-.265-.174-.533-.34-.806-.501-2.51-.961-5.166-1.588-7.897-1.94-13.551-1.743-28.979 3.189-37.802 6.693l-1.463.613c-.743.318-1.49.64-2.246.973-1.272.56-2.559 1.146-3.874 1.759l-.572.269c-.787.369-1.576.739-2.379 1.127l-.145.069-.723.356-.291.143-.272.137-.177.086c-.564.278-1.125.551-1.698.84l-.083.041-.053.026-.414.204-.072.035-.31.163c-.88.445-1.754.905-2.625 1.366-.61.322-1.219.648-1.826.977l-.098.053-1.346.737-.056.032c-1.46.807-2.91 1.63-4.358 2.477l-.453.261-.386.227-.354.214-.152.092c-.99.59-1.977 1.183-2.961 1.787l-.714.451c-.684.423-1.361.853-2.036 1.284l-.281.176-.207.131c-1.883 1.206-3.75 2.444-5.607 3.708-3.066 2.086-6.098 4.241-9.088 6.469l-1.163.873c-7.839 5.902-15.408 12.233-22.661 18.808-7.657 6.946-14.954 14.163-21.848 21.416-3.732 3.741-6.94 7.092-9.557 9.911-5.251 5.655-8.114 9.15-7.997 9.229.047.051.51-.377 1.33-1.197-.679.787-1.357 1.573-2.024 2.358 11.447-12.205 24.141-24.702 37.771-36.476 8.28-7.145 16.898-14.024 25.799-20.406v.001c3.898-2.798 7.852-5.498 11.855-8.083 1.28-.829 2.568-1.647 3.86-2.451.644-.4 1.293-.789 1.94-1.184l1.099-.671c.69-.418 1.384-.828 2.078-1.238.68-.4 1.356-.8 2.037-1.195l1.069-.614c.865-.496 1.733-.979 2.605-1.46.518-.288 1.04-.578 1.559-.861l.006-.002c1.644-.895 3.293-1.759 4.948-2.607l.415-.21.776-.394 1.029-.523.387-.197.055-.026.697-.338.146-.07.081-.042c.725-.354 1.444-.703 2.155-1.045l.394-.19.69-.325c.83-.391 1.657-.781 2.474-1.158l.676-.314.35-.157.696-.313c.958-.433 1.913-.861 2.848-1.267.854-.372 1.685-.714 2.519-1.064 4.714-1.982 9.147-3.648 13.267-4.974 7.918-2.541 14.751-3.931 20.748-4.189z"/></svg>