<?xml version="1.0" encoding="iso-8859-1"?>
<!-- Generator: Adobe Illustrator 18.1.1, SVG Export Plug-In . SVG Version: 6.00 Build 0)  -->
<svg version="1.1" id="Capa_1" xmlns="http://www.w3.org/2000/svg" xmlns:xlink="http://www.w3.org/1999/xlink" x="0px" y="0px"
	 viewBox="0 0 46.628 46.628" style="enable-background:new 0 0 46.628 46.628;" xml:space="preserve">
<g>
	<path style="fill:#2A3D50;" d="M19.477,0.048C8.417,1.939,0,11.572,0,23.17c0,12.956,10.503,23.458,23.458,23.458
		c11.599,0,21.231-8.418,23.122-19.478c0.372-2.178-1.454-3.981-3.664-3.981H27.458c-2.209,0-4-1.791-4-4V3.712
		C23.458,1.503,21.655-0.324,19.477,0.048z"/>
	<path style="fill:#179EC8;" d="M27.291,6.317V16.66c0,1.478,1.198,2.676,2.676,2.676H40.31c1.478,0,2.7-1.207,2.451-2.664
		c-1.117-6.534-6.273-11.691-12.807-12.808C28.498,3.617,27.291,4.839,27.291,6.317z"/>
</g>
<g>
</g>
<g>
</g>
<g>
</g>
<g>
</g>
<g>
</g>
<g>
</g>
<g>
</g>
<g>
</g>
<g>
</g>
<g>
</g>
<g>
</g>
<g>
</g>
<g>
</g>
<g>
</g>
<g>
</g>
</svg>
