<?xml version="1.0" standalone="no"?><!DOCTYPE svg PUBLIC "-//W3C//DTD SVG 1.1//EN" "http://www.w3.org/Graphics/SVG/1.1/DTD/svg11.dtd"><svg width="100%" height="100%" viewBox="0 0 24 24" version="1.1" xmlns="http://www.w3.org/2000/svg" xmlns:xlink="http://www.w3.org/1999/xlink" xml:space="preserve" style="fill-rule:evenodd;clip-rule:evenodd;stroke-linejoin:round;stroke-miterlimit:1.41421;"><path d="M12,20.837c-4.881,0 -8.837,-3.956 -8.837,-8.837c0,-4.881 3.956,-8.837 8.837,-8.837c4.881,0 8.837,3.956 8.837,8.837c0,4.881 -3.956,8.837 -8.837,8.837ZM12,0c-6.627,0 -12,5.373 -12,12c0,6.627 5.373,12 12,12c6.627,0 12,-5.373 12,-12c0,-6.627 -5.373,-12 -12,-12Z" style="fill:#e22329;fill-rule:nonzero;"/><path d="M12.493,9.012c0,-1.379 1.118,-2.496 2.495,-2.496c1.379,0 2.496,1.117 2.496,2.496c0,1.377 -1.117,2.495 -2.496,2.495c-1.377,0 -2.495,-1.118 -2.495,-2.495Z" style="fill:#e22329;fill-rule:nonzero;"/><path d="M12.493,14.988c0,-1.377 1.118,-2.495 2.495,-2.495c1.379,0 2.496,1.118 2.496,2.495c0,1.379 -1.117,2.496 -2.496,2.496c-1.377,0 -2.495,-1.117 -2.495,-2.496Z" style="fill:#e22329;fill-rule:nonzero;"/><path d="M6.516,14.988c0,-1.377 1.117,-2.495 2.496,-2.495c1.378,0 2.495,1.118 2.495,2.495c0,1.379 -1.117,2.496 -2.495,2.496c-1.379,0 -2.496,-1.117 -2.496,-2.496Z" style="fill:#e22329;fill-rule:nonzero;"/><path d="M6.516,9.012c0,-1.378 1.117,-2.496 2.496,-2.496c1.378,0 2.495,1.118 2.495,2.496c0,1.378 -1.117,2.495 -2.495,2.495c-1.379,0 -2.496,-1.117 -2.496,-2.495Z" style="fill:#e22329;fill-rule:nonzero;"/></svg>