<?xml version="1.0" standalone="no"?><!DOCTYPE svg PUBLIC "-//W3C//DTD SVG 1.1//EN" "http://www.w3.org/Graphics/SVG/1.1/DTD/svg11.dtd"><svg width="100%" height="100%" viewBox="0 0 400 400" version="1.1" xmlns="http://www.w3.org/2000/svg" xmlns:xlink="http://www.w3.org/1999/xlink" xml:space="preserve" style="fill-rule:evenodd;clip-rule:evenodd;stroke-linejoin:round;stroke-miterlimit:1.41421;"><g><path d="M250,200.087c-0.009,14.862 -2.727,29.089 -7.681,42.224c-13.131,4.953 -27.365,7.678 -42.233,7.689l-0.172,0c-14.861,-0.011 -29.091,-2.728 -42.222,-7.68c-4.954,-13.133 -7.682,-27.367 -7.692,-42.233l0,-0.173c0.01,-14.862 2.732,-29.09 7.678,-42.223c13.138,-4.955 27.369,-7.682 42.236,-7.691l0.172,0c14.868,0.009 29.102,2.736 42.233,7.691c4.954,13.133 7.672,27.361 7.681,42.223l0,0.173ZM397.22,166.667l-116.746,0l82.55,-82.551c-6.488,-9.112 -13.722,-17.658 -21.612,-25.546l-0.004,-0.005c-7.883,-7.881 -16.421,-15.106 -25.524,-21.588l-82.551,82.549l0,-116.745c-10.808,-1.813 -21.904,-2.775 -33.227,-2.781l-0.213,0c-11.322,0.006 -22.418,0.968 -33.226,2.781l0,116.746l-82.552,-82.55c-9.107,6.485 -17.649,13.714 -25.534,21.599l-0.028,0.028c-7.877,7.879 -15.098,16.413 -21.577,25.512l82.552,82.551l-116.748,0c0,0 -2.777,21.927 -2.78,33.26l0,0.143c0.003,11.335 0.965,22.445 2.78,33.263l116.746,0l-82.549,82.55c12.972,18.217 28.922,34.168 47.139,47.141l82.551,-82.549l0,116.744c10.796,1.811 21.881,2.773 33.191,2.781l0.286,0c11.309,-0.008 22.393,-0.97 33.189,-2.78l0,-116.747l82.552,82.55c9.105,-6.483 17.643,-13.71 25.527,-21.592l0.02,-0.019c7.881,-7.884 15.108,-16.423 21.591,-25.527l-82.55,-82.552l116.746,0c1.811,-10.796 2.773,-21.881 2.781,-33.191l0,-0.286c-0.008,-11.309 -0.97,-22.393 -2.78,-33.189Z" style="fill:#f36d21;fill-rule:nonzero;"/></g></svg>